<mxfile host="app.diagrams.net" modified="2021-02-18T07:39:11.955Z" agent="5.0 (Macintosh; Intel Mac OS X 10_15_7) AppleWebKit/537.36 (KHTML, like Gecko) Chrome/88.0.4324.146 Safari/537.36" etag="2OfHeGilInJfNBu-xDUx" version="14.4.2" type="github">
  <diagram id="f0RSN88m8Pic7EO8OySR" name="Page-1">
    <mxGraphModel dx="2253" dy="923" grid="1" gridSize="10" guides="1" tooltips="1" connect="1" arrows="1" fold="1" page="1" pageScale="1" pageWidth="827" pageHeight="1169" math="0" shadow="0">
      <root>
        <mxCell id="0" />
        <mxCell id="1" parent="0" />
        <mxCell id="DkqRiTfdkSOThAQxRClu-7" style="edgeStyle=orthogonalEdgeStyle;rounded=0;orthogonalLoop=1;jettySize=auto;html=1;exitX=0.5;exitY=1;exitDx=0;exitDy=0;entryX=0.5;entryY=0;entryDx=0;entryDy=0;" edge="1" parent="1" source="DkqRiTfdkSOThAQxRClu-1" target="DkqRiTfdkSOThAQxRClu-3">
          <mxGeometry relative="1" as="geometry" />
        </mxCell>
        <mxCell id="DkqRiTfdkSOThAQxRClu-1" value="點選聯盟網連結&lt;br&gt;atm_src = affiliate" style="rounded=1;whiteSpace=wrap;html=1;" vertex="1" parent="1">
          <mxGeometry x="130" y="190" width="120" height="60" as="geometry" />
        </mxCell>
        <mxCell id="DkqRiTfdkSOThAQxRClu-8" style="edgeStyle=orthogonalEdgeStyle;rounded=0;orthogonalLoop=1;jettySize=auto;html=1;exitX=0.5;exitY=1;exitDx=0;exitDy=0;" edge="1" parent="1" source="DkqRiTfdkSOThAQxRClu-2" target="DkqRiTfdkSOThAQxRClu-4">
          <mxGeometry relative="1" as="geometry" />
        </mxCell>
        <mxCell id="DkqRiTfdkSOThAQxRClu-2" value="點選講師連結&lt;br&gt;atm_src = teacherA" style="rounded=1;whiteSpace=wrap;html=1;" vertex="1" parent="1">
          <mxGeometry x="450" y="190" width="120" height="60" as="geometry" />
        </mxCell>
        <mxCell id="DkqRiTfdkSOThAQxRClu-10" style="edgeStyle=orthogonalEdgeStyle;rounded=0;orthogonalLoop=1;jettySize=auto;html=1;exitX=0.5;exitY=1;exitDx=0;exitDy=0;entryX=0.5;entryY=0;entryDx=0;entryDy=0;" edge="1" parent="1" source="DkqRiTfdkSOThAQxRClu-3" target="DkqRiTfdkSOThAQxRClu-9">
          <mxGeometry relative="1" as="geometry" />
        </mxCell>
        <mxCell id="DkqRiTfdkSOThAQxRClu-3" value="存入 cookie = affiliate" style="rounded=1;whiteSpace=wrap;html=1;" vertex="1" parent="1">
          <mxGeometry x="130" y="300" width="120" height="60" as="geometry" />
        </mxCell>
        <mxCell id="DkqRiTfdkSOThAQxRClu-12" style="edgeStyle=orthogonalEdgeStyle;rounded=0;orthogonalLoop=1;jettySize=auto;html=1;exitX=0.5;exitY=1;exitDx=0;exitDy=0;entryX=0.5;entryY=0;entryDx=0;entryDy=0;" edge="1" parent="1" source="DkqRiTfdkSOThAQxRClu-4" target="DkqRiTfdkSOThAQxRClu-11">
          <mxGeometry relative="1" as="geometry" />
        </mxCell>
        <mxCell id="DkqRiTfdkSOThAQxRClu-4" value="存入 cookie = teacherA" style="rounded=1;whiteSpace=wrap;html=1;" vertex="1" parent="1">
          <mxGeometry x="450" y="300" width="120" height="60" as="geometry" />
        </mxCell>
        <mxCell id="DkqRiTfdkSOThAQxRClu-5" value="聯盟網 55 分潤&lt;br&gt;courseA&lt;br&gt;courseB&lt;br&gt;courseC" style="rounded=1;whiteSpace=wrap;html=1;" vertex="1" parent="1">
          <mxGeometry x="220" y="610" width="120" height="60" as="geometry" />
        </mxCell>
        <mxCell id="DkqRiTfdkSOThAQxRClu-6" value="土撥鼠&lt;br&gt;courseC&lt;br&gt;courseD" style="rounded=1;whiteSpace=wrap;html=1;" vertex="1" parent="1">
          <mxGeometry x="380" y="610" width="120" height="60" as="geometry" />
        </mxCell>
        <mxCell id="DkqRiTfdkSOThAQxRClu-15" style="edgeStyle=orthogonalEdgeStyle;rounded=0;orthogonalLoop=1;jettySize=auto;html=1;exitX=0.5;exitY=1;exitDx=0;exitDy=0;" edge="1" parent="1" source="DkqRiTfdkSOThAQxRClu-9" target="DkqRiTfdkSOThAQxRClu-5">
          <mxGeometry relative="1" as="geometry" />
        </mxCell>
        <mxCell id="DkqRiTfdkSOThAQxRClu-19" style="edgeStyle=orthogonalEdgeStyle;rounded=0;orthogonalLoop=1;jettySize=auto;html=1;exitX=0.5;exitY=1;exitDx=0;exitDy=0;" edge="1" parent="1" source="DkqRiTfdkSOThAQxRClu-9" target="DkqRiTfdkSOThAQxRClu-17">
          <mxGeometry relative="1" as="geometry" />
        </mxCell>
        <mxCell id="DkqRiTfdkSOThAQxRClu-9" value="完成付款" style="rounded=1;whiteSpace=wrap;html=1;" vertex="1" parent="1">
          <mxGeometry x="130" y="400" width="120" height="60" as="geometry" />
        </mxCell>
        <mxCell id="DkqRiTfdkSOThAQxRClu-20" style="edgeStyle=orthogonalEdgeStyle;rounded=0;orthogonalLoop=1;jettySize=auto;html=1;exitX=0.5;exitY=1;exitDx=0;exitDy=0;" edge="1" parent="1" source="DkqRiTfdkSOThAQxRClu-11" target="DkqRiTfdkSOThAQxRClu-6">
          <mxGeometry relative="1" as="geometry" />
        </mxCell>
        <mxCell id="DkqRiTfdkSOThAQxRClu-24" style="edgeStyle=orthogonalEdgeStyle;rounded=0;orthogonalLoop=1;jettySize=auto;html=1;exitX=0.5;exitY=1;exitDx=0;exitDy=0;" edge="1" parent="1" source="DkqRiTfdkSOThAQxRClu-11" target="DkqRiTfdkSOThAQxRClu-23">
          <mxGeometry relative="1" as="geometry" />
        </mxCell>
        <mxCell id="DkqRiTfdkSOThAQxRClu-11" value="完成付款" style="rounded=1;whiteSpace=wrap;html=1;" vertex="1" parent="1">
          <mxGeometry x="450" y="400" width="120" height="60" as="geometry" />
        </mxCell>
        <mxCell id="DkqRiTfdkSOThAQxRClu-17" value="聯盟網 55 分潤&lt;br&gt;courseA&lt;br&gt;courseB&lt;br&gt;courseC&lt;br&gt;-------------------------&lt;br&gt;土撥鼠&lt;br&gt;courseC&lt;br&gt;courseD" style="rounded=1;whiteSpace=wrap;html=1;" vertex="1" parent="1">
          <mxGeometry x="40" y="610" width="120" height="140" as="geometry" />
        </mxCell>
        <mxCell id="DkqRiTfdkSOThAQxRClu-23" value="聯盟網 55 分潤&lt;br&gt;courseA&lt;br&gt;courseB&lt;br&gt;courseC&lt;br&gt;-------------------------&lt;br&gt;土撥鼠&lt;br&gt;courseC&lt;br&gt;courseD" style="rounded=1;whiteSpace=wrap;html=1;" vertex="1" parent="1">
          <mxGeometry x="530" y="610" width="120" height="140" as="geometry" />
        </mxCell>
        <mxCell id="DkqRiTfdkSOThAQxRClu-25" value="聯盟網 55 分潤&lt;br&gt;courseA&lt;br&gt;courseB&lt;br&gt;courseC" style="rounded=1;whiteSpace=wrap;html=1;" vertex="1" parent="1">
          <mxGeometry x="-683" y="300" width="120" height="60" as="geometry" />
        </mxCell>
        <mxCell id="DkqRiTfdkSOThAQxRClu-26" value="土撥鼠&lt;br&gt;courseC&lt;br&gt;courseD" style="rounded=1;whiteSpace=wrap;html=1;" vertex="1" parent="1">
          <mxGeometry x="-120" y="400" width="120" height="60" as="geometry" />
        </mxCell>
        <mxCell id="DkqRiTfdkSOThAQxRClu-36" style="edgeStyle=orthogonalEdgeStyle;rounded=0;orthogonalLoop=1;jettySize=auto;html=1;exitX=0.5;exitY=1;exitDx=0;exitDy=0;entryX=0.5;entryY=0;entryDx=0;entryDy=0;" edge="1" parent="1" source="DkqRiTfdkSOThAQxRClu-37" target="DkqRiTfdkSOThAQxRClu-39">
          <mxGeometry relative="1" as="geometry" />
        </mxCell>
        <mxCell id="DkqRiTfdkSOThAQxRClu-37" value="點選聯盟網連結&lt;br&gt;atm_src = affiliate" style="rounded=1;whiteSpace=wrap;html=1;" vertex="1" parent="1">
          <mxGeometry x="-473" y="190" width="120" height="60" as="geometry" />
        </mxCell>
        <mxCell id="DkqRiTfdkSOThAQxRClu-38" style="edgeStyle=orthogonalEdgeStyle;rounded=0;orthogonalLoop=1;jettySize=auto;html=1;exitX=0.5;exitY=1;exitDx=0;exitDy=0;entryX=0.5;entryY=0;entryDx=0;entryDy=0;" edge="1" parent="1" source="DkqRiTfdkSOThAQxRClu-39" target="DkqRiTfdkSOThAQxRClu-43">
          <mxGeometry relative="1" as="geometry" />
        </mxCell>
        <mxCell id="DkqRiTfdkSOThAQxRClu-39" value="存入 cookie = affiliate" style="rounded=1;whiteSpace=wrap;html=1;" vertex="1" parent="1">
          <mxGeometry x="-473" y="300" width="120" height="60" as="geometry" />
        </mxCell>
        <mxCell id="DkqRiTfdkSOThAQxRClu-40" value="聯盟網 55 分潤&lt;br&gt;courseA&lt;br&gt;courseB&lt;br&gt;courseC" style="rounded=1;whiteSpace=wrap;html=1;" vertex="1" parent="1">
          <mxGeometry x="-473" y="600" width="120" height="60" as="geometry" />
        </mxCell>
        <mxCell id="DkqRiTfdkSOThAQxRClu-41" style="edgeStyle=orthogonalEdgeStyle;rounded=0;orthogonalLoop=1;jettySize=auto;html=1;exitX=0.5;exitY=1;exitDx=0;exitDy=0;" edge="1" parent="1" source="DkqRiTfdkSOThAQxRClu-43" target="DkqRiTfdkSOThAQxRClu-40">
          <mxGeometry relative="1" as="geometry" />
        </mxCell>
        <mxCell id="DkqRiTfdkSOThAQxRClu-43" value="完成付款" style="rounded=1;whiteSpace=wrap;html=1;" vertex="1" parent="1">
          <mxGeometry x="-473" y="400" width="120" height="60" as="geometry" />
        </mxCell>
        <mxCell id="DkqRiTfdkSOThAQxRClu-45" value="聯盟網 55 分潤&lt;br&gt;courseA&lt;br&gt;courseB&lt;br&gt;courseC" style="rounded=1;whiteSpace=wrap;html=1;" vertex="1" parent="1">
          <mxGeometry x="-120" y="300" width="120" height="60" as="geometry" />
        </mxCell>
        <mxCell id="DkqRiTfdkSOThAQxRClu-46" value="" style="shape=cross;whiteSpace=wrap;html=1;rotation=-45;" vertex="1" parent="1">
          <mxGeometry x="-290" y="790" width="70" height="70" as="geometry" />
        </mxCell>
        <mxCell id="DkqRiTfdkSOThAQxRClu-50" style="edgeStyle=orthogonalEdgeStyle;rounded=0;orthogonalLoop=1;jettySize=auto;html=1;exitX=0.5;exitY=1;exitDx=0;exitDy=0;entryX=0.5;entryY=0;entryDx=0;entryDy=0;" edge="1" parent="1" source="DkqRiTfdkSOThAQxRClu-51" target="DkqRiTfdkSOThAQxRClu-55">
          <mxGeometry relative="1" as="geometry" />
        </mxCell>
        <mxCell id="DkqRiTfdkSOThAQxRClu-51" value="點選聯盟網連結&lt;br&gt;atm_src = affiliate" style="rounded=1;whiteSpace=wrap;html=1;" vertex="1" parent="1">
          <mxGeometry x="1090" y="190" width="120" height="60" as="geometry" />
        </mxCell>
        <mxCell id="DkqRiTfdkSOThAQxRClu-52" style="edgeStyle=orthogonalEdgeStyle;rounded=0;orthogonalLoop=1;jettySize=auto;html=1;exitX=0.5;exitY=1;exitDx=0;exitDy=0;" edge="1" parent="1" source="DkqRiTfdkSOThAQxRClu-53" target="DkqRiTfdkSOThAQxRClu-57">
          <mxGeometry relative="1" as="geometry" />
        </mxCell>
        <mxCell id="DkqRiTfdkSOThAQxRClu-53" value="點選講師連結&lt;br&gt;atm_src = teacherA" style="rounded=1;whiteSpace=wrap;html=1;" vertex="1" parent="1">
          <mxGeometry x="1410" y="190" width="120" height="60" as="geometry" />
        </mxCell>
        <mxCell id="DkqRiTfdkSOThAQxRClu-54" style="edgeStyle=orthogonalEdgeStyle;rounded=0;orthogonalLoop=1;jettySize=auto;html=1;exitX=0.5;exitY=1;exitDx=0;exitDy=0;entryX=0.5;entryY=0;entryDx=0;entryDy=0;" edge="1" parent="1" source="DkqRiTfdkSOThAQxRClu-55" target="DkqRiTfdkSOThAQxRClu-62">
          <mxGeometry relative="1" as="geometry" />
        </mxCell>
        <mxCell id="DkqRiTfdkSOThAQxRClu-55" value="存入 cookie = affiliate" style="rounded=1;whiteSpace=wrap;html=1;" vertex="1" parent="1">
          <mxGeometry x="1090" y="300" width="120" height="60" as="geometry" />
        </mxCell>
        <mxCell id="DkqRiTfdkSOThAQxRClu-56" style="edgeStyle=orthogonalEdgeStyle;rounded=0;orthogonalLoop=1;jettySize=auto;html=1;exitX=0.5;exitY=1;exitDx=0;exitDy=0;entryX=0.5;entryY=0;entryDx=0;entryDy=0;" edge="1" parent="1" source="DkqRiTfdkSOThAQxRClu-57" target="DkqRiTfdkSOThAQxRClu-65">
          <mxGeometry relative="1" as="geometry" />
        </mxCell>
        <mxCell id="DkqRiTfdkSOThAQxRClu-57" value="存入 cookie = teacherA" style="rounded=1;whiteSpace=wrap;html=1;" vertex="1" parent="1">
          <mxGeometry x="1410" y="300" width="120" height="60" as="geometry" />
        </mxCell>
        <mxCell id="DkqRiTfdkSOThAQxRClu-58" value="聯盟網 55 分潤&lt;br&gt;courseA&lt;br&gt;courseB&lt;br&gt;courseC" style="rounded=1;whiteSpace=wrap;html=1;" vertex="1" parent="1">
          <mxGeometry x="1180" y="610" width="120" height="60" as="geometry" />
        </mxCell>
        <mxCell id="DkqRiTfdkSOThAQxRClu-59" value="土撥鼠&lt;br&gt;courseC&lt;br&gt;courseD" style="rounded=1;whiteSpace=wrap;html=1;" vertex="1" parent="1">
          <mxGeometry x="1340" y="610" width="120" height="60" as="geometry" />
        </mxCell>
        <mxCell id="DkqRiTfdkSOThAQxRClu-60" style="edgeStyle=orthogonalEdgeStyle;rounded=0;orthogonalLoop=1;jettySize=auto;html=1;exitX=0.5;exitY=1;exitDx=0;exitDy=0;" edge="1" parent="1" source="DkqRiTfdkSOThAQxRClu-62" target="DkqRiTfdkSOThAQxRClu-58">
          <mxGeometry relative="1" as="geometry" />
        </mxCell>
        <mxCell id="DkqRiTfdkSOThAQxRClu-62" value="完成付款" style="rounded=1;whiteSpace=wrap;html=1;" vertex="1" parent="1">
          <mxGeometry x="1090" y="400" width="120" height="60" as="geometry" />
        </mxCell>
        <mxCell id="DkqRiTfdkSOThAQxRClu-63" style="edgeStyle=orthogonalEdgeStyle;rounded=0;orthogonalLoop=1;jettySize=auto;html=1;exitX=0.5;exitY=1;exitDx=0;exitDy=0;" edge="1" parent="1" source="DkqRiTfdkSOThAQxRClu-65" target="DkqRiTfdkSOThAQxRClu-59">
          <mxGeometry relative="1" as="geometry" />
        </mxCell>
        <mxCell id="DkqRiTfdkSOThAQxRClu-65" value="完成付款" style="rounded=1;whiteSpace=wrap;html=1;" vertex="1" parent="1">
          <mxGeometry x="1410" y="400" width="120" height="60" as="geometry" />
        </mxCell>
        <mxCell id="DkqRiTfdkSOThAQxRClu-68" value="土撥鼠&lt;br&gt;courseC&lt;br&gt;courseD" style="rounded=1;whiteSpace=wrap;html=1;" vertex="1" parent="1">
          <mxGeometry x="840" y="400" width="120" height="60" as="geometry" />
        </mxCell>
        <mxCell id="DkqRiTfdkSOThAQxRClu-69" value="聯盟網 55 分潤&lt;br&gt;courseA&lt;br&gt;courseB&lt;br&gt;courseC" style="rounded=1;whiteSpace=wrap;html=1;" vertex="1" parent="1">
          <mxGeometry x="840" y="300" width="120" height="60" as="geometry" />
        </mxCell>
        <mxCell id="DkqRiTfdkSOThAQxRClu-70" value="&lt;h1&gt;&lt;font color=&quot;#ff0000&quot;&gt;確認版&lt;/font&gt;&lt;/h1&gt;&lt;p&gt;&lt;font color=&quot;#ff0000&quot;&gt;根據點選的連結來決定參與的聯盟活動是什麼&lt;/font&gt;&lt;/p&gt;" style="text;html=1;strokeColor=none;fillColor=none;spacing=5;spacingTop=-20;whiteSpace=wrap;overflow=hidden;rounded=0;" vertex="1" parent="1">
          <mxGeometry x="820" y="70" width="190" height="120" as="geometry" />
        </mxCell>
      </root>
    </mxGraphModel>
  </diagram>
</mxfile>
